<?xml version="1.0" encoding="utf-8"?>
<svg width="88.000000pt" height="93.000000pt" viewBox="0 0 88.000000 93.000000" preserveAspectRatio="xMidYMid meet" xmlns="http://www.w3.org/2000/svg">
  <g transform="matrix(0.05, 0, 0, -0.05, 1.976572, 94.796883)" fill="#f61515" stroke="none">
    <path d="M 479 1663 C -4 1486 -148 894 201 513 C 580 98 1282 286 1392 833 L 1396.813 947.908 L 1239.999 951.124 C 1104.685 954.555 1082.875 949.982 1076.425 926.653 C 1071.946 910.452 1074.875 894.509 1052.344 827.25 C 1012.217 707.462 819.606 630.803 677 645 C 269.156 685.602 226.031 1266.219 629.031 1348.219 L 731.563 1357.625 L 730.375 1532.406 L 729.188 1689.219 L 638.812 1690.813 C 596.812 1690.813 529 1682 479 1663 Z" style="fill: rgb(12, 11, 11);"/>
    <path d="M 800 1534 L 800 1354.813 L 925 1356 L 1050 1357.188 L 1056 1175 L 1062 1000 L 1231 1003.594 L 1400 1007.188 L 1400 1169 L 1400 1352.375 L 1525 1354.781 L 1650 1353.594 L 1651.594 1538.344 C 1647.594 1735.344 1686 1685 1210 1696 L 800 1690.625 L 800 1534 Z"/>
    <path d="M 562 1169 C 394 1027 528 747 745 788 C 994 835 956 1220 701 1220 C 647 1220 605 1205 562 1169 Z" style="fill: rgb(16, 15, 15);"/>
    <path d="M 146.871 1095.313 Z" style="stroke: black; fill: rgb(12, 11, 11);"/>
    <path d="M 146.871 1095.313 Z" style="stroke: black; fill: rgb(12, 11, 11);"/>
  </g>
</svg>